# MagicaVoxel @ Ephtracy

# group
g miasto

# material
mtllib miasto.mtl
usemtl palette

# normals
vn -1 0 0
vn 1 0 0
vn 0 0 1
vn 0 0 -1
vn 0 -1 0
vn 0 1 0

# texcoords
vt 0.978516 0.5
vt 0.986328 0.5

# verts
v -63 0 63
v -63 0 -63
v -63 1 63
v -63 1 -63
v -55 1 -25
v -55 1 -55
v -55 61 -25
v -55 61 -55
v -54 1 14
v -54 1 -22
v -54 72 14
v -54 72 -22
v -53 1 43
v -53 1 22
v -53 93 43
v -53 93 22
v -16 1 24
v -16 1 -15
v -16 1 -19
v -16 1 -49
v -16 89 -19
v -16 89 -49
v -16 126 24
v -16 126 -15
v -14 1 57
v -14 1 28
v -14 51 57
v -14 51 28
v 20 1 -25
v 20 1 -55
v 20 43 -25
v 20 43 -55
v 21 1 19
v 21 1 -23
v 21 80 19
v 21 80 -23
v -25 1 -25
v -25 1 -55
v -25 61 -25
v -25 61 -55
v -21 1 43
v -21 1 22
v -21 93 43
v -21 93 22
v -20 1 14
v -20 1 -22
v -20 72 14
v -20 72 -22
v 14 1 -19
v 14 1 -49
v 14 89 -19
v 14 89 -49
v 18 1 24
v 18 1 -15
v 18 126 24
v 18 126 -15
v 50 1 -25
v 50 1 -55
v 50 43 -25
v 50 43 -55
v 51 1 57
v 51 1 28
v 51 51 57
v 51 51 28
v 53 1 19
v 53 1 -23
v 53 80 19
v 53 80 -23
v 63 0 63
v 63 0 -63
v 63 1 63
v 63 1 -63
v -63 0 63
v -63 1 63
v 63 0 63
v 63 1 63
v -14 1 57
v -14 51 57
v 51 1 57
v 51 51 57
v -53 1 43
v -53 93 43
v -21 1 43
v -21 93 43
v -16 1 24
v -16 126 24
v 18 1 24
v 18 126 24
v 21 1 19
v 21 80 19
v 53 1 19
v 53 80 19
v -54 1 14
v -54 72 14
v -20 1 14
v -20 72 14
v -16 1 -19
v -16 89 -19
v 14 1 -19
v 14 89 -19
v -55 1 -25
v -55 61 -25
v -25 1 -25
v -25 61 -25
v 20 1 -25
v 20 43 -25
v 50 1 -25
v 50 43 -25
v -14 1 28
v -14 51 28
v 51 1 28
v 51 51 28
v -53 1 22
v -53 93 22
v -21 1 22
v -21 93 22
v -16 1 -15
v -16 126 -15
v 18 1 -15
v 18 126 -15
v -54 1 -22
v -54 72 -22
v -20 1 -22
v -20 72 -22
v 21 1 -23
v 21 80 -23
v 53 1 -23
v 53 80 -23
v -16 1 -49
v -16 89 -49
v 14 1 -49
v 14 89 -49
v -55 1 -55
v -55 61 -55
v -25 1 -55
v -25 61 -55
v 20 1 -55
v 20 43 -55
v 50 1 -55
v 50 43 -55
v -63 0 -63
v -63 1 -63
v 63 0 -63
v 63 1 -63
v -63 0 63
v 63 0 63
v -14 0 57
v 51 0 57
v -53 0 43
v -21 0 43
v -14 0 28
v 51 0 28
v -16 0 24
v 18 0 24
v -53 0 22
v -21 0 22
v 21 0 19
v 53 0 19
v -54 0 14
v -20 0 14
v -16 0 -15
v 18 0 -15
v -16 0 -19
v 14 0 -19
v -54 0 -22
v -20 0 -22
v 21 0 -23
v 53 0 -23
v -55 0 -25
v -25 0 -25
v 20 0 -25
v 50 0 -25
v -16 0 -49
v 14 0 -49
v -55 0 -55
v -25 0 -55
v 20 0 -55
v 50 0 -55
v -63 0 -63
v 63 0 -63
v -63 1 63
v 63 1 63
v -14 1 57
v 51 1 57
v -53 1 43
v -21 1 43
v -14 1 28
v 51 1 28
v -16 1 24
v 18 1 24
v -53 1 22
v -21 1 22
v 21 1 19
v 53 1 19
v -54 1 14
v -20 1 14
v -16 1 -15
v 18 1 -15
v -16 1 -19
v 14 1 -19
v -54 1 -22
v -20 1 -22
v 21 1 -23
v 53 1 -23
v -55 1 -25
v -25 1 -25
v 20 1 -25
v 50 1 -25
v -16 1 -49
v 14 1 -49
v -55 1 -55
v -25 1 -55
v 20 1 -55
v 50 1 -55
v -63 1 -63
v 63 1 -63
v 20 43 -25
v 50 43 -25
v 20 43 -55
v 50 43 -55
v -14 51 57
v 51 51 57
v -14 51 28
v 51 51 28
v -55 61 -25
v -25 61 -25
v -55 61 -55
v -25 61 -55
v -54 72 14
v -20 72 14
v -54 72 -22
v -20 72 -22
v 21 80 19
v 53 80 19
v 21 80 -23
v 53 80 -23
v -16 89 -19
v 14 89 -19
v -16 89 -49
v 14 89 -49
v -53 93 43
v -21 93 43
v -53 93 22
v -21 93 22
v -16 126 24
v 18 126 24
v -16 126 -15
v 18 126 -15

# faces
f 3/2/1 2/2/1 1/2/1
f 4/2/1 2/2/1 3/2/1
f 7/1/1 6/1/1 5/1/1
f 8/1/1 6/1/1 7/1/1
f 11/1/1 10/1/1 9/1/1
f 12/1/1 10/1/1 11/1/1
f 15/1/1 14/1/1 13/1/1
f 16/1/1 14/1/1 15/1/1
f 21/1/1 20/1/1 19/1/1
f 22/1/1 20/1/1 21/1/1
f 23/1/1 18/1/1 17/1/1
f 24/1/1 18/1/1 23/1/1
f 27/1/1 26/1/1 25/1/1
f 28/1/1 26/1/1 27/1/1
f 31/1/1 30/1/1 29/1/1
f 32/1/1 30/1/1 31/1/1
f 35/1/1 34/1/1 33/1/1
f 36/1/1 34/1/1 35/1/1
f 37/1/2 38/1/2 39/1/2
f 39/1/2 38/1/2 40/1/2
f 41/1/2 42/1/2 43/1/2
f 43/1/2 42/1/2 44/1/2
f 45/1/2 46/1/2 47/1/2
f 47/1/2 46/1/2 48/1/2
f 49/1/2 50/1/2 51/1/2
f 51/1/2 50/1/2 52/1/2
f 53/1/2 54/1/2 55/1/2
f 55/1/2 54/1/2 56/1/2
f 57/1/2 58/1/2 59/1/2
f 59/1/2 58/1/2 60/1/2
f 61/1/2 62/1/2 63/1/2
f 63/1/2 62/1/2 64/1/2
f 65/1/2 66/1/2 67/1/2
f 67/1/2 66/1/2 68/1/2
f 69/2/2 70/2/2 71/2/2
f 71/2/2 70/2/2 72/2/2
f 75/2/3 74/2/3 73/2/3
f 76/2/3 74/2/3 75/2/3
f 79/1/3 78/1/3 77/1/3
f 80/1/3 78/1/3 79/1/3
f 83/1/3 82/1/3 81/1/3
f 84/1/3 82/1/3 83/1/3
f 87/1/3 86/1/3 85/1/3
f 88/1/3 86/1/3 87/1/3
f 91/1/3 90/1/3 89/1/3
f 92/1/3 90/1/3 91/1/3
f 95/1/3 94/1/3 93/1/3
f 96/1/3 94/1/3 95/1/3
f 99/1/3 98/1/3 97/1/3
f 100/1/3 98/1/3 99/1/3
f 103/1/3 102/1/3 101/1/3
f 104/1/3 102/1/3 103/1/3
f 107/1/3 106/1/3 105/1/3
f 108/1/3 106/1/3 107/1/3
f 109/1/4 110/1/4 111/1/4
f 111/1/4 110/1/4 112/1/4
f 113/1/4 114/1/4 115/1/4
f 115/1/4 114/1/4 116/1/4
f 117/1/4 118/1/4 119/1/4
f 119/1/4 118/1/4 120/1/4
f 121/1/4 122/1/4 123/1/4
f 123/1/4 122/1/4 124/1/4
f 125/1/4 126/1/4 127/1/4
f 127/1/4 126/1/4 128/1/4
f 129/1/4 130/1/4 131/1/4
f 131/1/4 130/1/4 132/1/4
f 133/1/4 134/1/4 135/1/4
f 135/1/4 134/1/4 136/1/4
f 137/1/4 138/1/4 139/1/4
f 139/1/4 138/1/4 140/1/4
f 141/2/4 142/2/4 143/2/4
f 143/2/4 142/2/4 144/2/4
f 147/2/5 146/2/5 145/2/5
f 148/2/5 146/2/5 147/2/5
f 149/2/5 147/2/5 145/2/5
f 150/2/5 147/2/5 149/2/5
f 151/1/5 148/1/5 147/1/5
f 151/2/5 147/2/5 150/2/5
f 152/2/5 146/2/5 148/2/5
f 152/1/5 148/1/5 151/1/5
f 153/2/5 151/2/5 150/2/5
f 153/2/5 152/2/5 151/2/5
f 154/2/5 152/2/5 153/2/5
f 155/1/5 150/1/5 149/1/5
f 155/2/5 149/2/5 145/2/5
f 156/2/5 153/2/5 150/2/5
f 156/1/5 150/1/5 155/1/5
f 157/2/5 152/2/5 154/2/5
f 158/2/5 146/2/5 152/2/5
f 158/2/5 152/2/5 157/2/5
f 159/2/5 155/2/5 145/2/5
f 159/2/5 156/2/5 155/2/5
f 160/2/5 153/2/5 156/2/5
f 160/2/5 156/2/5 159/2/5
f 161/1/5 154/1/5 153/1/5
f 161/2/5 153/2/5 160/2/5
f 162/2/5 157/2/5 154/2/5
f 162/1/5 154/1/5 161/1/5
f 163/2/5 161/2/5 160/2/5
f 163/2/5 162/2/5 161/2/5
f 164/2/5 162/2/5 163/2/5
f 165/2/5 159/2/5 145/2/5
f 165/1/5 160/1/5 159/1/5
f 166/2/5 163/2/5 160/2/5
f 166/1/5 160/1/5 165/1/5
f 167/2/5 157/2/5 162/2/5
f 167/2/5 162/2/5 164/2/5
f 167/1/5 158/1/5 157/1/5
f 168/2/5 146/2/5 158/2/5
f 168/1/5 158/1/5 167/1/5
f 169/2/5 166/2/5 165/2/5
f 169/2/5 165/2/5 145/2/5
f 170/2/5 166/2/5 169/2/5
f 171/2/5 167/2/5 164/2/5
f 171/2/5 168/2/5 167/2/5
f 172/2/5 168/2/5 171/2/5
f 173/2/5 163/2/5 166/2/5
f 173/1/5 164/1/5 163/1/5
f 173/2/5 166/2/5 170/2/5
f 174/2/5 171/2/5 164/2/5
f 174/1/5 164/1/5 173/1/5
f 175/1/5 170/1/5 169/1/5
f 175/2/5 169/2/5 145/2/5
f 176/2/5 173/2/5 170/2/5
f 176/1/5 170/1/5 175/1/5
f 176/2/5 174/2/5 173/2/5
f 177/1/5 172/1/5 171/1/5
f 177/2/5 174/2/5 176/2/5
f 177/2/5 171/2/5 174/2/5
f 178/2/5 168/2/5 172/2/5
f 178/1/5 172/1/5 177/1/5
f 179/2/5 177/2/5 176/2/5
f 179/2/5 176/2/5 175/2/5
f 179/2/5 178/2/5 177/2/5
f 179/2/5 175/2/5 145/2/5
f 180/2/5 168/2/5 178/2/5
f 180/2/5 178/2/5 179/2/5
f 180/2/5 146/2/5 168/2/5
f 181/2/6 182/2/6 183/2/6
f 183/2/6 182/2/6 184/2/6
f 181/2/6 183/2/6 185/2/6
f 185/2/6 183/2/6 186/2/6
f 186/2/6 183/2/6 187/2/6
f 184/2/6 182/2/6 188/2/6
f 186/2/6 187/2/6 189/2/6
f 187/2/6 188/2/6 189/2/6
f 189/2/6 188/2/6 190/2/6
f 181/2/6 185/2/6 191/2/6
f 186/2/6 189/2/6 192/2/6
f 190/2/6 188/2/6 193/2/6
f 188/2/6 182/2/6 194/2/6
f 193/2/6 188/2/6 194/2/6
f 191/2/6 192/2/6 195/2/6
f 181/2/6 191/2/6 195/2/6
f 192/2/6 189/2/6 196/2/6
f 195/2/6 192/2/6 196/2/6
f 196/2/6 189/2/6 197/2/6
f 190/2/6 193/2/6 198/2/6
f 196/2/6 197/2/6 199/2/6
f 197/2/6 198/2/6 199/2/6
f 199/2/6 198/2/6 200/2/6
f 181/2/6 195/2/6 201/2/6
f 196/2/6 199/2/6 202/2/6
f 198/2/6 193/2/6 203/2/6
f 200/2/6 198/2/6 203/2/6
f 194/2/6 182/2/6 204/2/6
f 201/2/6 202/2/6 205/2/6
f 181/2/6 201/2/6 205/2/6
f 205/2/6 202/2/6 206/2/6
f 203/2/6 204/2/6 207/2/6
f 200/2/6 203/2/6 207/2/6
f 207/2/6 204/2/6 208/2/6
f 206/2/6 202/2/6 209/2/6
f 202/2/6 199/2/6 209/2/6
f 200/2/6 207/2/6 210/2/6
f 181/2/6 205/2/6 211/2/6
f 206/2/6 209/2/6 212/2/6
f 209/2/6 210/2/6 212/2/6
f 210/2/6 207/2/6 213/2/6
f 212/2/6 210/2/6 213/2/6
f 208/2/6 204/2/6 214/2/6
f 212/2/6 213/2/6 215/2/6
f 213/2/6 214/2/6 215/2/6
f 181/2/6 211/2/6 215/2/6
f 211/2/6 212/2/6 215/2/6
f 214/2/6 204/2/6 216/2/6
f 215/2/6 214/2/6 216/2/6
f 204/2/6 182/2/6 216/2/6
f 217/1/6 218/1/6 219/1/6
f 219/1/6 218/1/6 220/1/6
f 221/1/6 222/1/6 223/1/6
f 223/1/6 222/1/6 224/1/6
f 225/1/6 226/1/6 227/1/6
f 227/1/6 226/1/6 228/1/6
f 229/1/6 230/1/6 231/1/6
f 231/1/6 230/1/6 232/1/6
f 233/1/6 234/1/6 235/1/6
f 235/1/6 234/1/6 236/1/6
f 237/1/6 238/1/6 239/1/6
f 239/1/6 238/1/6 240/1/6
f 241/1/6 242/1/6 243/1/6
f 243/1/6 242/1/6 244/1/6
f 245/1/6 246/1/6 247/1/6
f 247/1/6 246/1/6 248/1/6
